<svg width="24" height="24" viewBox="0 0 24 24" fill="none" xmlns="http://www.w3.org/2000/svg">
<path fill-rule="evenodd" clip-rule="evenodd" d="M9 5H18C18.5523 5 19 5.44772 19 6V18C19 18.5523 18.5523 19 18 19H9V5ZM8 3H18C19.6569 3 21 4.34315 21 6V18C21 19.6569 19.6569 21 18 21H8H6C4.34315 21 3 19.6569 3 18V6C3 4.34315 4.34315 3 6 3H8ZM7 19H6C5.44772 19 5 18.5523 5 18V6C5 5.44772 5.44772 5 6 5H7V19ZM11 7C10.4477 7 10 7.44772 10 8C10 8.55228 10.4477 9 11 9H17C17.5523 9 18 8.55228 18 8C18 7.44772 17.5523 7 17 7H11ZM11 11C10.4477 11 10 11.4477 10 12C10 12.5523 10.4477 13 11 13H17C17.5523 13 18 12.5523 18 12C18 11.4477 17.5523 11 17 11H11ZM11 15C10.4477 15 10 15.4477 10 16C10 16.5523 10.4477 17 11 17H17C17.5523 17 18 16.5523 18 16C18 15.4477 17.5523 15 17 15H11Z" fill="black"/>
</svg>
