<svg width="24" height="24" viewBox="0 0 24 24" fill="none" xmlns="http://www.w3.org/2000/svg">
<path fill-rule="evenodd" clip-rule="evenodd" d="M15.1253 6.87825C13.9925 6.18701 12.6625 5.89082 11.3434 6.03603C10.0244 6.18125 8.79065 6.75967 7.83535 7.68078C6.88005 8.60189 6.25707 9.81372 6.0639 11.1266C5.87073 12.4395 6.11828 13.7794 6.76779 14.9367C7.41731 16.0939 8.43215 17.0032 9.6535 17.5221C10.8748 18.0411 12.2338 18.1406 13.5177 17.8049C14.8016 17.4692 15.938 16.7174 16.749 15.667C17.5601 14.6166 18 13.327 18 12H20C20 13.7694 19.4134 15.4889 18.332 16.8893C17.2506 18.2898 15.7354 19.2923 14.0236 19.7398C12.3117 20.1874 10.4998 20.0548 8.87133 19.3628C7.24286 18.6709 5.88974 17.4585 5.02372 15.9156L5.8756 15.4374L5.02372 15.9156C4.1577 14.3726 3.82765 12.5861 4.0852 10.8355C4.34276 9.08496 5.1734 7.46918 6.44713 6.24104C7.72087 5.01289 9.36582 4.24166 11.1246 4.04804C12.8834 3.85443 14.6567 4.24934 16.1671 5.171L15.1253 6.87825Z" fill="#333333"/>
<path fill-rule="evenodd" clip-rule="evenodd" d="M21.7071 5.20711L12 14.9142L8.29291 11.2071L9.70712 9.79289L12 12.0858L20.2929 3.79289L21.7071 5.20711Z" fill="#333333"/>
</svg>
