<svg width="24" height="24" viewBox="0 0 24 24" fill="none" xmlns="http://www.w3.org/2000/svg">
<path fill-rule="evenodd" clip-rule="evenodd" d="M12.7071 8.29291L15.7071 11.2929C16.0976 11.6834 16.0976 12.3166 15.7071 12.7071L12.7071 15.7071L11.2929 14.2929L12.5858 13H3V11H12.5858L11.2929 9.70712L12.7071 8.29291Z" fill="black"/>
<path fill-rule="evenodd" clip-rule="evenodd" d="M14.5226 6.1964C13.2502 5.8626 11.9034 5.95618 10.6894 6.46276C9.47542 6.96933 8.46156 7.86081 7.80385 9L6.0718 8C6.94875 6.48108 8.30057 5.29244 9.9192 4.61701C11.5378 3.94158 13.3336 3.81679 15.0301 4.26186C16.7266 4.70693 18.2298 5.69718 19.3084 7.08022C20.387 8.46325 20.9812 10.1624 20.9996 11.9162C21.0179 13.67 20.4594 15.3813 19.41 16.7866C18.3606 18.1919 16.8785 19.2134 15.1917 19.6939C13.5049 20.1744 11.7069 20.0873 10.0745 19.4459C8.44206 18.8045 7.06566 17.6444 6.15709 16.1442L7.86782 15.1082C8.54924 16.2333 9.58155 17.1034 10.8059 17.5844C12.0302 18.0655 13.3787 18.1308 14.6438 17.7705C15.9089 17.4101 17.0205 16.6439 17.8075 15.59C18.5946 14.536 19.0134 13.2525 18.9997 11.9372C18.9859 10.6218 18.5402 9.34744 17.7313 8.31016C16.9223 7.27289 15.7949 6.5302 14.5226 6.1964Z" fill="black"/>
</svg>
